<?xml version="1.0" standalone="no"?>
<!DOCTYPE svg PUBLIC "-//W3C//DTD SVG 20010904//EN"
 "http://www.w3.org/TR/2001/REC-SVG-20010904/DTD/svg10.dtd">
<svg version="1.0" xmlns="http://www.w3.org/2000/svg"
 width="20.000000pt" height="20.000000pt" viewBox="0 0 842.000000 596.000000"
 preserveAspectRatio="xMidYMid meet">

<g transform="translate(0.000000,596.000000) scale(0.100000,-0.100000)"
fill="#000000" stroke="none">
<path d="M5269 5270 c-599 -51 -1101 -230 -1514 -539 -127 -96 -343 -306 -448
-436 -79 -98 -176 -240 -232 -340 -39 -68 -30 -58 66 75 479 668 1076 1019
1914 1126 108 14 209 18 440 18 329 0 460 -11 780 -65 158 -27 597 -130 665
-157 18 -7 62 -2 165 18 132 26 138 28 110 40 -288 117 -572 173 -1215 240
-225 23 -577 33 -731 20z"/>
<path d="M5578 4913 c7 -3 16 -2 19 1 4 3 -2 6 -13 5 -11 0 -14 -3 -6 -6z"/>
<path d="M5440 4884 c-540 -141 -996 -345 -1470 -658 -224 -148 -295 -207
-643 -534 -233 -219 -237 -225 -237 -368 0 -84 13 -101 44 -58 286 395 810
869 1256 1136 337 202 721 369 1140 495 69 21 3 12 -90 -13z"/>
<path d="M6155 4575 c-162 -43 -238 -81 -498 -249 -233 -150 -409 -235 -912
-438 -427 -173 -224 -119 435 114 257 91 442 164 550 218 100 50 275 125 327
141 44 12 48 17 186 201 34 45 32 45 -88 13z"/>
<path d="M6316 3450 c-37 -11 -66 -38 -66 -61 0 -10 -11 -31 -24 -46 l-24 -28
-330 -5 c-306 -5 -331 -6 -351 -24 -23 -21 -29 -83 -11 -116 18 -34 75 -40
388 -40 289 0 303 -1 322 -20 11 -11 20 -28 20 -38 0 -40 62 -82 122 -82 55 0
92 26 119 83 l24 52 330 5 c357 5 365 7 384 61 13 37 2 76 -27 99 -23 19 -41
20 -346 20 -176 0 -327 4 -335 9 -8 5 -22 29 -30 52 -24 63 -98 99 -165 79z"/>
<path d="M2063 3438 c-13 -6 -34 -35 -48 -63 -13 -29 -32 -55 -41 -59 -8 -3
-155 -6 -325 -6 -325 0 -357 -4 -373 -45 -13 -34 -5 -75 18 -102 l24 -28 330
-3 c363 -3 348 0 369 -67 13 -40 66 -75 115 -75 57 0 96 24 117 73 10 23 25
48 33 54 10 9 106 13 342 15 l328 3 24 28 c38 45 27 113 -23 136 -16 7 -129
11 -336 11 -343 0 -349 1 -362 60 -11 49 -57 80 -118 79 -29 0 -62 -5 -74 -11z"/>
<path d="M1332 2923 c-56 -28 -86 -76 -90 -149 -4 -57 -1 -69 22 -105 17 -25
44 -48 69 -60 40 -18 81 -19 1008 -19 531 0 969 -3 972 -6 4 -4 -20 -37 -52
-73 -238 -269 -345 -537 -346 -866 0 -137 2 -153 22 -185 29 -46 72 -70 138
-77 48 -5 60 -2 95 21 63 42 81 88 91 240 4 72 17 166 28 210 41 156 129 304
261 437 170 173 367 266 608 288 287 26 546 -61 750 -253 143 -136 233 -275
285 -441 30 -95 36 -132 46 -287 7 -106 10 -120 36 -153 33 -44 78 -65 140
-65 128 0 184 97 171 297 -20 317 -139 600 -345 825 -34 36 -61 71 -61 77 0 8
273 11 970 11 1061 0 1011 -3 1063 59 75 89 50 217 -53 269 l-44 22 -2876 0
c-2641 0 -2878 -2 -2908 -17z"/>
<path d="M3955 1956 c-20 -15 -17 -44 7 -59 12 -8 21 -7 32 2 36 30 -1 85 -39
57z"/>
<path d="M3500 1820 l0 -29 128 -3 128 -3 -143 -209 c-79 -115 -143 -217 -143
-228 0 -17 12 -18 190 -18 l190 0 0 30 0 29 -144 3 -144 3 139 204 c83 121
139 213 139 227 l0 24 -170 0 -170 0 0 -30z"/>
<path d="M3940 1590 l0 -260 35 0 35 0 0 260 0 260 -35 0 -35 0 0 -260z"/>
<path d="M4120 1590 l0 -260 35 0 35 0 0 120 0 120 125 0 125 0 0 -120 0 -120
35 0 35 0 0 260 0 260 -35 0 -35 0 0 -110 0 -110 -125 0 -125 0 0 110 0 110
-35 0 -35 0 0 -260z"/>
<path d="M4765 1838 c-2 -7 -43 -124 -89 -260 l-85 -248 34 0 c34 0 34 1 62
85 l27 86 95 -3 94 -3 27 -80 c25 -76 28 -80 58 -83 18 -2 32 0 32 5 0 4 -39
122 -86 261 l-87 252 -39 0 c-22 0 -41 -5 -43 -12z m83 -175 l38 -113 -79 0
c-59 0 -77 3 -74 13 3 6 20 60 38 120 19 59 35 104 37 100 1 -5 19 -59 40
-120z"/>
<path d="M3414 1129 c-10 -17 13 -36 27 -22 12 12 4 33 -11 33 -5 0 -12 -5
-16 -11z"/>
<path d="M3210 945 c0 -148 1 -155 20 -155 19 0 20 7 20 155 0 148 -1 155 -20
155 -19 0 -20 -7 -20 -155z"/>
<path d="M6010 945 c0 -148 1 -155 20 -155 17 0 20 7 20 44 0 25 4 48 10 51 5
3 26 -17 46 -45 22 -31 43 -50 56 -50 21 0 21 1 -29 71 -18 26 -33 50 -33 55
0 4 17 25 37 46 33 34 35 38 16 38 -13 0 -37 -19 -62 -47 l-40 -48 -1 98 c0
90 -1 97 -20 97 -19 0 -20 -7 -20 -155z"/>
<path d="M1810 1065 c0 -11 12 -15 45 -15 l45 0 0 -130 c0 -123 1 -130 20
-130 19 0 20 7 20 130 l0 130 40 0 c29 0 40 4 40 15 0 12 -18 15 -105 15 -87
0 -105 -3 -105 -15z"/>
<path d="M3410 935 c0 -138 1 -145 20 -145 19 0 20 7 20 145 0 138 -1 145 -20
145 -19 0 -20 -7 -20 -145z"/>
<path d="M5317 1063 c-3 -10 -9 -75 -12 -145 -6 -110 -5 -128 8 -128 12 0 16
20 22 98 3 53 7 108 8 122 1 15 18 -26 41 -98 29 -91 43 -122 54 -120 10 2 31
49 57 122 l42 119 6 -48 c4 -26 7 -81 7 -121 0 -68 2 -74 21 -74 19 0 20 4 15
68 -3 37 -8 102 -12 145 -5 71 -7 77 -28 77 -20 0 -27 -14 -63 -120 l-41 -121
-39 118 c-32 96 -43 119 -60 121 -14 2 -23 -3 -26 -15z"/>
<path d="M6615 1070 c-4 -6 -1 -17 5 -26 15 -18 42 0 33 22 -6 16 -29 19 -38
4z"/>
<path d="M2053 990 c-37 -15 -26 -29 17 -23 41 6 70 -8 70 -33 0 -8 -9 -14
-20 -14 -33 0 -88 -27 -99 -48 -28 -53 41 -102 95 -68 22 15 25 15 30 1 3 -8
12 -15 20 -15 18 0 19 111 3 159 -16 45 -64 62 -116 41z m87 -118 c0 -36 -16
-52 -52 -52 -51 0 -49 57 3 71 43 12 49 10 49 -19z"/>
<path d="M2240 895 c0 -98 1 -105 20 -105 18 0 20 7 20 70 0 57 4 74 20 90 11
11 25 20 30 20 6 0 10 7 10 15 0 20 -12 19 -44 -6 l-26 -20 0 20 c0 12 -6 21
-15 21 -12 0 -15 -18 -15 -105z"/>
<path d="M2380 895 c0 -98 1 -105 20 -105 19 0 20 7 20 105 0 98 -1 105 -20
105 -19 0 -20 -7 -20 -105z"/>
<path d="M2480 895 c0 -98 1 -105 20 -105 18 0 20 7 20 74 0 78 13 106 49 106
32 0 41 -22 41 -102 0 -71 2 -78 20 -78 18 0 20 7 20 74 0 78 13 106 49 106
32 0 41 -22 41 -102 0 -71 2 -78 20 -78 18 0 20 7 20 65 0 120 -46 174 -109
128 -26 -20 -27 -20 -50 -2 -30 24 -52 24 -85 -2 l-26 -20 0 20 c0 12 -6 21
-15 21 -12 0 -15 -18 -15 -105z"/>
<path d="M2862 984 c-14 -10 -22 -25 -22 -44 0 -24 7 -33 41 -50 31 -16 40
-26 37 -43 -2 -18 -10 -22 -42 -23 -51 -1 -58 -21 -11 -30 29 -5 43 -2 63 13
40 30 35 61 -13 94 -52 36 -53 63 -2 67 38 3 49 15 21 26 -26 10 -48 7 -72
-10z"/>
<path d="M3033 990 c-37 -15 -26 -29 17 -23 41 6 70 -8 70 -33 0 -8 -9 -14
-20 -14 -33 0 -88 -27 -99 -48 -28 -53 41 -102 95 -68 22 15 25 15 30 1 3 -8
12 -15 20 -15 18 0 19 111 3 159 -16 45 -64 62 -116 41z m87 -118 c0 -36 -16
-52 -52 -52 -51 0 -49 57 3 71 43 12 49 10 49 -19z"/>
<path d="M3510 895 c0 -98 1 -105 20 -105 18 0 20 7 20 73 0 77 15 107 53 107
34 0 47 -29 47 -106 0 -67 2 -74 20 -74 18 0 20 7 20 64 0 34 -5 77 -11 95
-19 53 -67 66 -113 30 l-26 -20 0 20 c0 12 -6 21 -15 21 -12 0 -15 -18 -15
-105z"/>
<path d="M3773 990 c-37 -15 -26 -29 17 -23 41 6 70 -8 70 -33 0 -8 -9 -14
-20 -14 -33 0 -88 -27 -99 -48 -28 -53 41 -102 95 -68 22 15 25 15 30 1 3 -8
12 -15 20 -15 18 0 19 111 3 159 -16 45 -64 62 -116 41z m87 -118 c0 -36 -16
-52 -52 -52 -51 0 -49 57 3 71 43 12 49 10 49 -19z"/>
<path d="M3940 994 c0 -4 16 -51 37 -106 48 -130 58 -130 110 7 36 93 39 105
22 105 -14 0 -24 -20 -45 -85 -16 -46 -30 -82 -33 -79 -4 3 -18 40 -32 82 -17
50 -32 78 -42 80 -10 2 -17 0 -17 -4z"/>
<path d="M4183 990 c-37 -15 -26 -29 17 -23 41 6 70 -8 70 -33 0 -8 -9 -14
-20 -14 -33 0 -88 -27 -99 -48 -28 -53 41 -102 95 -68 22 15 25 15 30 1 3 -8
12 -15 20 -15 18 0 19 111 3 159 -16 45 -64 62 -116 41z m87 -118 c0 -36 -16
-52 -52 -52 -51 0 -49 57 3 71 43 12 49 10 49 -19z"/>
<path d="M4392 984 c-14 -10 -22 -25 -22 -44 0 -24 7 -33 41 -50 31 -16 40
-26 37 -43 -2 -18 -10 -22 -42 -23 -51 -1 -58 -21 -11 -30 29 -5 43 -2 63 13
40 30 35 61 -13 94 -52 36 -53 63 -2 67 38 3 49 15 21 26 -26 10 -48 7 -72
-10z"/>
<path d="M4520 995 c0 -2 9 -28 21 -57 12 -29 29 -74 40 -100 l19 -48 -36 -36
c-42 -41 -34 -68 10 -33 32 25 54 66 99 188 31 82 33 91 17 91 -14 0 -25 -19
-45 -80 -15 -44 -28 -80 -30 -80 -1 0 -16 36 -31 80 -21 59 -33 80 -46 80 -10
0 -18 -2 -18 -5z"/>
<path d="M4771 974 c-75 -63 -34 -184 63 -184 36 0 84 45 92 86 18 96 -82 160
-155 98z m101 -21 c23 -21 24 -89 1 -115 -20 -22 -61 -23 -85 -1 -23 21 -24
89 -1 115 20 22 61 23 85 1z"/>
<path d="M4970 895 c0 -98 1 -105 20 -105 18 0 20 7 20 73 0 77 15 107 53 107
34 0 47 -29 47 -106 0 -67 2 -74 20 -74 18 0 20 7 20 64 0 34 -5 77 -11 95
-19 53 -67 66 -113 30 l-26 -20 0 20 c0 12 -6 21 -15 21 -12 0 -15 -18 -15
-105z"/>
<path d="M5694 990 c-54 -22 -73 -113 -34 -163 23 -28 74 -43 115 -33 44 11
30 32 -19 28 -35 -3 -49 1 -65 17 -40 40 -29 51 55 51 l77 0 -7 33 c-11 59
-67 90 -122 67z m74 -32 c26 -26 13 -38 -43 -38 -59 0 -64 4 -38 32 18 20 63
24 81 6z"/>
<path d="M5870 895 c0 -98 1 -105 20 -105 18 0 20 7 20 70 0 57 4 74 20 90 11
11 25 20 30 20 6 0 10 7 10 15 0 20 -12 19 -44 -6 l-26 -20 0 20 c0 12 -6 21
-15 21 -12 0 -15 -18 -15 -105z"/>
<path d="M6254 990 c-54 -22 -73 -113 -34 -163 23 -28 74 -43 115 -33 44 11
30 32 -19 28 -35 -3 -49 1 -65 17 -40 40 -29 51 55 51 l77 0 -7 33 c-11 59
-67 90 -122 67z m74 -32 c26 -26 13 -38 -43 -38 -59 0 -64 4 -38 32 18 20 63
24 81 6z"/>
<path d="M6420 985 c0 -10 15 -15 55 -17 l55 -3 -60 -78 c-33 -42 -60 -82 -60
-87 0 -6 36 -10 85 -10 68 0 85 3 85 15 0 10 -15 15 -59 17 l-60 3 60 79 c32
44 59 83 59 88 0 4 -36 8 -80 8 -63 0 -80 -3 -80 -15z"/>
<path d="M6610 895 c0 -98 1 -105 20 -105 19 0 20 7 20 105 0 98 -1 105 -20
105 -19 0 -20 -7 -20 -105z"/>
</g>
</svg>
