<?xml version="1.0" standalone="no"?>
<!DOCTYPE svg PUBLIC "-//W3C//DTD SVG 20010904//EN"
 "http://www.w3.org/TR/2001/REC-SVG-20010904/DTD/svg10.dtd">
<svg version="1.0" xmlns="http://www.w3.org/2000/svg"
 width="20.000000pt" height="20.000000pt" viewBox="0 0 591.000000 591.000000"
 preserveAspectRatio="xMidYMid meet">

<g transform="translate(0.000000,591.000000) scale(0.100000,-0.100000)"
fill="#000000" stroke="none">
<path d="M3810 4944 c-14 -2 -65 -9 -115 -15 -409 -50 -784 -186 -1090 -397
-219 -151 -453 -391 -598 -614 -57 -88 -111 -180 -80 -138 340 471 644 726
1073 903 497 205 1157 241 1860 101 126 -26 363 -85 432 -109 32 -11 53 -9
153 10 64 13 118 25 121 27 7 8 -235 86 -351 113 -125 30 -284 54 -595 91
-172 21 -272 27 -500 29 -157 2 -296 2 -310 -1z"/>
<path d="M3895 4580 c-414 -116 -809 -299 -1190 -553 -183 -121 -296 -216
-590 -496 -150 -143 -168 -172 -169 -278 -1 -80 8 -98 32 -67 10 12 43 55 74
95 199 258 503 542 832 778 279 200 617 370 1001 502 157 53 161 62 10 19z"/>
<path d="M4615 4336 c-142 -41 -208 -74 -450 -230 -184 -119 -333 -190 -770
-368 -143 -58 -204 -87 -175 -82 25 4 63 13 85 21 22 8 148 52 280 98 342 117
501 178 655 250 160 74 303 135 318 135 10 0 162 183 162 195 0 8 -21 5 -105
-19z"/>
<path d="M1054 3346 c-22 -10 -35 -25 -44 -50 -21 -63 -25 -64 -327 -63 -312
0 -323 -2 -323 -71 0 -78 -9 -76 327 -83 164 -3 299 -6 299 -7 1 -1 9 -20 18
-42 19 -48 54 -73 104 -73 51 0 81 18 98 58 28 67 17 65 325 65 164 0 288 4
299 10 25 13 41 65 30 95 -18 47 -36 50 -341 53 l-287 3 -17 45 c-26 68 -88
91 -161 60z"/>
<path d="M4736 3339 c-14 -11 -26 -27 -26 -34 0 -8 -10 -26 -23 -41 l-23 -27
-263 2 c-273 2 -322 -3 -341 -39 -17 -31 -12 -76 11 -96 19 -18 44 -19 313
-24 l291 -5 24 -46 c26 -53 52 -70 104 -72 50 -1 83 19 101 62 8 21 21 42 28
49 10 8 104 12 302 14 l288 3 19 24 c22 27 24 68 5 94 -25 32 -76 38 -331 37
-137 -1 -258 -1 -268 -1 -11 1 -25 17 -37 45 -31 73 -117 100 -174 55z"/>
<path d="M420 2899 c-113 -46 -124 -218 -17 -277 30 -16 98 -17 877 -20 465
-1 849 -3 855 -5 10 -4 -2 -21 -85 -120 -167 -198 -249 -415 -257 -682 -4
-128 -3 -143 16 -173 29 -45 77 -72 131 -72 95 0 149 69 150 191 1 221 92 438
253 602 107 108 223 178 374 224 78 23 105 26 238 27 173 1 241 -13 370 -74
225 -107 392 -307 470 -560 9 -30 20 -112 24 -181 9 -142 23 -179 80 -213 74
-43 169 -14 209 64 60 119 -1 458 -122 674 -37 66 -157 227 -195 260 -11 11
-21 23 -21 28 0 4 375 8 833 8 568 0 845 4 872 11 107 29 148 156 78 240 -54
63 142 59 -2600 58 -1629 0 -2517 -4 -2533 -10z"/>
<path d="M2696 2045 c-12 -12 -13 -21 -6 -36 13 -23 33 -25 51 -3 9 11 10 20
3 32 -15 23 -29 25 -48 7z"/>
<path d="M2307 1953 c-4 -3 -7 -15 -7 -25 0 -16 10 -18 115 -18 63 0 115 -3
115 -6 0 -3 -55 -85 -122 -183 -67 -97 -123 -186 -126 -198 l-4 -23 166 0 166
0 0 25 0 24 -126 3 -125 3 58 85 c146 210 193 284 193 301 0 18 -10 19 -148
19 -82 0 -152 -3 -155 -7z"/>
<path d="M2690 1730 l0 -231 28 3 27 3 0 225 0 225 -27 3 -28 3 0 -231z"/>
<path d="M2850 1730 l0 -231 28 3 27 3 3 108 3 107 109 0 110 0 0 -111 0 -110
28 3 27 3 0 225 0 225 -27 3 -28 3 0 -95 0 -96 -110 0 -109 0 -3 93 -3 92 -27
3 -28 3 0 -231z"/>
<path d="M3405 1948 c-73 -214 -145 -433 -145 -440 0 -5 12 -8 27 -6 23 3 29
12 52 76 l26 73 79 -3 80 -3 25 -72 c24 -67 28 -73 54 -73 15 0 27 4 27 9 0 5
-34 107 -75 227 -41 120 -75 219 -75 221 0 10 -71 1 -75 -9z m105 -255 c0 -2
-29 -3 -65 -3 -36 0 -65 3 -65 6 0 4 14 51 31 105 l32 100 33 -103 c19 -57 34
-104 34 -105z"/>
<path d="M2224 1329 c-10 -17 13 -36 27 -22 12 12 4 33 -11 33 -5 0 -12 -5
-16 -11z"/>
<path d="M2060 1165 c0 -113 2 -135 15 -135 13 0 15 22 15 135 0 113 -2 135
-15 135 -13 0 -15 -22 -15 -135z"/>
<path d="M4500 1165 c0 -113 2 -135 15 -135 11 0 15 11 15 39 0 22 4 42 9 46
6 3 24 -15 41 -40 20 -29 38 -45 52 -45 15 0 18 4 11 13 -5 6 -24 31 -42 54
l-32 43 30 32 c22 24 27 34 17 36 -8 2 -31 -14 -50 -35 l-35 -38 -1 83 c0 66
-3 82 -15 82 -13 0 -15 -22 -15 -135z"/>
<path d="M830 1270 c0 -5 16 -10 35 -10 l34 0 3 -112 c2 -93 6 -113 18 -113
12 0 16 20 18 113 l3 112 34 0 c18 0 37 5 40 10 4 6 -28 10 -89 10 -57 0 -96
-4 -96 -10z"/>
<path d="M2228 1154 c2 -91 6 -124 15 -121 8 2 13 42 15 125 2 111 1 122 -15
122 -16 0 -18 -11 -15 -126z"/>
<path d="M3890 1238 c0 -24 -3 -80 -7 -125 -5 -73 -4 -83 11 -83 13 0 16 11
17 58 0 31 4 77 8 102 l7 45 29 -94 c27 -87 48 -118 64 -93 3 6 20 52 36 101
17 50 33 91 36 91 4 0 7 -43 8 -96 2 -98 5 -114 22 -114 10 0 12 84 2 183 -5
60 -8 67 -27 67 -18 0 -26 -14 -51 -87 -35 -103 -41 -113 -50 -82 -4 13 -18
57 -32 97 -22 62 -29 72 -49 72 -22 0 -24 -4 -24 -42z"/>
<path d="M5020 1265 c0 -8 9 -15 20 -15 11 0 20 7 20 15 0 8 -9 15 -20 15 -11
0 -20 -7 -20 -15z"/>
<path d="M2555 1220 c-91 -34 -73 -180 22 -180 46 0 68 13 83 49 14 35 7 93
-14 110 -22 18 -69 29 -91 21z m65 -39 c26 -49 4 -111 -39 -111 -45 0 -66 64
-35 108 19 27 60 29 74 3z"/>
<path d="M1038 1213 c-36 -9 -19 -29 22 -25 31 3 41 0 46 -13 8 -19 -11 -35
-42 -35 -43 0 -72 -68 -42 -98 16 -16 60 -15 77 1 11 10 14 10 18 0 3 -7 12
-13 20 -13 13 0 15 13 11 76 -3 65 -7 79 -27 95 -22 18 -46 22 -83 12z m78
-98 c10 -24 -24 -67 -49 -63 -32 4 -30 48 3 65 32 16 39 16 46 -2z"/>
<path d="M1247 1203 c-11 -11 -17 -13 -17 -5 0 7 -7 12 -15 12 -12 0 -15 -17
-15 -90 0 -73 3 -90 15 -90 12 0 15 13 15 58 0 60 19 102 46 102 8 0 14 7 14
15 0 20 -22 19 -43 -2z"/>
<path d="M1462 1204 c-12 -8 -22 -10 -22 -5 0 6 -7 11 -15 11 -12 0 -15 -17
-15 -90 0 -73 3 -90 15 -90 12 0 15 14 15 64 0 69 14 96 50 96 28 0 40 -31 40
-100 0 -88 23 -76 30 15 6 75 24 100 58 79 13 -9 18 -28 20 -83 2 -54 6 -71
17 -71 12 0 15 16 15 75 0 62 -4 79 -20 95 -24 24 -48 25 -78 4 -21 -15 -25
-15 -41 0 -22 20 -41 20 -69 0z"/>
<path d="M1740 1202 c-32 -26 -22 -63 25 -85 58 -28 36 -81 -26 -62 -15 5 -20
3 -17 -6 6 -18 61 -23 88 -9 16 9 20 19 18 43 -2 25 -11 36 -41 52 -46 24 -45
49 1 53 20 2 32 8 29 15 -6 20 -52 19 -77 -1z"/>
<path d="M1893 1213 c-29 -11 -11 -28 29 -28 31 0 43 -4 46 -16 2 -12 -9 -19
-42 -28 -61 -15 -85 -60 -50 -95 19 -19 65 -21 83 -3 11 10 14 10 18 0 12 -34
23 -5 23 62 0 62 -4 79 -20 95 -19 19 -59 25 -87 13z m77 -113 c0 -39 -41 -63
-66 -38 -13 12 -14 20 -5 36 9 18 20 23 64 31 4 0 7 -13 7 -29z"/>
<path d="M2374 1205 c-22 -17 -38 -20 -29 -5 3 6 -1 10 -9 10 -13 0 -16 -15
-16 -90 0 -73 3 -90 15 -90 12 0 15 13 15 61 0 71 12 99 43 99 37 0 47 -19 47
-92 0 -54 3 -68 15 -68 12 0 15 15 15 75 0 62 -4 79 -20 95 -24 24 -49 25 -76
5z"/>
<path d="M2894 1205 c-21 -16 -16 -18 37 -15 26 1 38 -4 43 -16 8 -20 11 -18
-43 -35 -51 -16 -67 -35 -57 -72 8 -32 46 -45 81 -29 15 7 26 8 30 2 16 -26
25 -3 25 65 0 62 -4 79 -20 95 -24 24 -68 26 -96 5z m86 -99 c0 -27 -23 -56
-44 -56 -8 0 -19 7 -27 16 -21 26 8 56 64 63 4 1 7 -10 7 -23z"/>
<path d="M3082 1204 c-35 -25 -26 -64 20 -89 21 -11 38 -28 38 -37 0 -20 -32
-32 -61 -23 -15 5 -20 3 -17 -6 7 -21 72 -23 92 -4 29 29 20 62 -25 90 -46 30
-47 49 0 53 19 2 31 8 28 15 -6 19 -50 19 -75 1z"/>
<path d="M3418 1205 c-31 -17 -52 -71 -42 -109 8 -32 49 -66 80 -66 86 0 126
99 65 161 -32 32 -62 36 -103 14z m86 -37 c23 -32 20 -63 -8 -95 -24 -27 -26
-27 -53 -13 -22 12 -29 24 -31 52 -2 21 2 46 8 58 15 28 64 27 84 -2z"/>
<path d="M3642 1204 c-12 -8 -22 -10 -22 -5 0 6 -6 11 -12 11 -10 0 -12 -23
-10 -91 2 -63 7 -89 15 -86 7 2 13 30 15 67 3 71 13 90 48 90 32 0 44 -27 44
-99 0 -48 3 -61 15 -61 12 0 15 14 15 70 0 62 -3 74 -25 95 -28 29 -51 31 -83
9z"/>
<path d="M4213 1205 c-13 -9 -27 -32 -33 -53 -14 -45 -2 -84 34 -107 28 -19
97 -17 104 3 3 10 -4 12 -31 7 -30 -6 -40 -3 -62 19 -14 14 -23 31 -20 36 3 6
33 10 66 10 57 0 59 1 59 25 0 32 -41 75 -72 75 -13 0 -33 -7 -45 -15z m81
-31 c11 -29 6 -34 -39 -34 -46 0 -58 13 -33 38 17 17 65 15 72 -4z"/>
<path d="M4424 1203 c-13 -13 -19 -14 -22 -5 -2 6 -11 12 -19 12 -10 0 -13 -6
-9 -16 3 -9 6 -49 6 -91 0 -55 3 -74 13 -71 7 3 13 25 15 54 3 72 10 92 32 99
11 3 20 13 20 21 0 19 -15 18 -36 -3z"/>
<path d="M4703 1205 c-54 -38 -50 -141 6 -165 35 -14 93 -10 99 8 3 10 -4 12
-31 7 -30 -6 -40 -3 -61 19 -39 38 -33 46 39 46 63 0 65 1 65 25 0 32 -41 75
-72 75 -13 0 -33 -7 -45 -15z m85 -49 c3 -13 -6 -16 -47 -16 -57 0 -63 9 -24
39 23 19 29 20 47 7 12 -7 22 -21 24 -30z"/>
<path d="M1322 1123 c2 -70 6 -88 18 -88 12 0 16 18 18 88 3 82 2 87 -18 87
-20 0 -21 -5 -18 -87z"/>
<path d="M2688 1193 c5 -10 22 -51 37 -91 19 -51 32 -72 42 -70 11 2 81 152
83 176 0 9 -31 0 -35 -10 -2 -7 -14 -40 -26 -73 l-22 -60 -24 73 c-19 56 -29
72 -44 72 -16 0 -18 -4 -11 -17z"/>
<path d="M3226 1128 c19 -45 34 -88 34 -94 0 -7 -14 -24 -31 -39 -41 -33 -26
-56 15 -24 28 22 46 58 91 177 22 58 23 62 6 62 -13 0 -23 -16 -36 -60 -10
-34 -21 -63 -25 -65 -3 -2 -16 25 -29 61 -17 47 -28 64 -41 64 -16 0 -15 -8
16 -82z"/>
<path d="M4850 1200 c0 -5 23 -10 51 -10 l50 0 -55 -71 c-31 -39 -53 -75 -50
-80 3 -5 36 -9 75 -9 54 0 69 3 69 14 0 11 -14 16 -51 18 l-50 3 50 65 c28 36
51 68 51 73 0 4 -31 7 -70 7 -40 0 -70 -4 -70 -10z"/>
<path d="M5022 1123 c2 -70 6 -88 18 -88 12 0 16 18 18 88 3 82 2 87 -18 87
-20 0 -21 -5 -18 -87z"/>
</g>
</svg>
